<svg width="80" height="82" viewBox="0 0 80 82" fill="none" xmlns="http://www.w3.org/2000/svg">
<g clip-path="url(#clip0_11_1400)">
<path d="M21.0938 0H2.34375C1.04937 0 0 1.0731 0 2.39674V21.5707C0 22.8943 1.04937 23.9674 2.34375 23.9674H21.0938C22.3881 23.9674 23.4375 22.8943 23.4375 21.5707V2.39674C23.4375 1.0731 22.3881 0 21.0938 0Z" fill="white"/>
<path d="M30.7812 14.3804H77.6562C78.9506 14.3804 80 13.3073 80 11.9837C80 10.6601 78.9506 9.58696 77.6562 9.58696H30.7812C29.4869 9.58696 28.4375 10.6601 28.4375 11.9837C28.4375 13.3073 29.4869 14.3804 30.7812 14.3804Z" fill="white"/>
<path d="M21.0938 28.9207H2.34375C1.04937 28.9207 0 29.9938 0 31.3174V50.4913C0 51.8149 1.04937 52.888 2.34375 52.888H21.0938C22.3881 52.888 23.4375 51.8149 23.4375 50.4913V31.3174C23.4375 29.9938 22.3881 28.9207 21.0938 28.9207Z" fill="white"/>
<path d="M21.0938 57.8413H2.34375C1.04937 57.8413 0 58.9144 0 60.238V79.412C0 80.7356 1.04937 81.8087 2.34375 81.8087H21.0938C22.3881 81.8087 23.4375 80.7356 23.4375 79.412V60.238C23.4375 58.9144 22.3881 57.8413 21.0938 57.8413Z" fill="white"/>
<path d="M77.6562 19.1739H30.7812C29.4869 19.1739 28.4375 20.247 28.4375 21.5707C28.4375 22.8943 29.4869 23.9674 30.7812 23.9674H77.6562C78.9506 23.9674 80 22.8943 80 21.5707C80 20.247 78.9506 19.1739 77.6562 19.1739Z" fill="white"/>
<path d="M30.7812 4.79348H49.5312C50.8256 4.79348 51.875 3.72038 51.875 2.39674C51.875 1.0731 50.8256 0 49.5312 0H30.7812C29.4869 0 28.4375 1.0731 28.4375 2.39674C28.4375 3.72038 29.4869 4.79348 30.7812 4.79348Z" fill="white"/>
<path d="M77.6562 48.0946H30.7812C29.4869 48.0946 28.4375 49.1677 28.4375 50.4913C28.4375 51.8149 29.4869 52.888 30.7812 52.888H77.6562C78.9506 52.888 80 51.8149 80 50.4913C80 49.1677 78.9506 48.0946 77.6562 48.0946Z" fill="white"/>
<path d="M77.6562 38.5076H30.7812C29.4869 38.5076 28.4375 39.5807 28.4375 40.9043C28.4375 42.228 29.4869 43.3011 30.7812 43.3011H77.6562C78.9506 43.3011 80 42.228 80 40.9043C80 39.5807 78.9506 38.5076 77.6562 38.5076Z" fill="white"/>
<path d="M30.7812 33.7141H49.5312C50.8256 33.7141 51.875 32.641 51.875 31.3174C51.875 29.9938 50.8256 28.9207 49.5312 28.9207H30.7812C29.4869 28.9207 28.4375 29.9938 28.4375 31.3174C28.4375 32.641 29.4869 33.7141 30.7812 33.7141Z" fill="white"/>
<path d="M77.6562 77.0152H30.7812C29.4869 77.0152 28.4375 78.0883 28.4375 79.412C28.4375 80.7356 29.4869 81.8087 30.7812 81.8087H77.6562C78.9506 81.8087 80 80.7356 80 79.412C80 78.0883 78.9506 77.0152 77.6562 77.0152Z" fill="white"/>
<path d="M77.6562 67.4283H30.7812C29.4869 67.4283 28.4375 68.5014 28.4375 69.825C28.4375 71.1486 29.4869 72.2217 30.7812 72.2217H77.6562C78.9506 72.2217 80 71.1486 80 69.825C80 68.5014 78.9506 67.4283 77.6562 67.4283Z" fill="white"/>
<path d="M30.7812 62.6348H49.5312C50.8256 62.6348 51.875 61.5617 51.875 60.238C51.875 58.9144 50.8256 57.8413 49.5312 57.8413H30.7812C29.4869 57.8413 28.4375 58.9144 28.4375 60.238C28.4375 61.5617 29.4869 62.6348 30.7812 62.6348Z" fill="white"/>
</g>
<defs>
<clipPath id="clip0_11_1400">
<rect width="80" height="81.8087" fill="white"/>
</clipPath>
</defs>
</svg>
