<svg width="80" height="82" viewBox="0 0 80 82" fill="none" xmlns="http://www.w3.org/2000/svg">
<g clip-path="url(#clip0_11_1415)">
<path d="M29.4666 51.1304H15.8333C14.4533 51.1304 13.3333 49.9851 13.3333 48.5739C13.3333 47.1627 14.4533 46.0174 15.8333 46.0174H29.4666C30.8466 46.0174 31.9666 47.1627 31.9666 48.5739C31.9666 49.9851 30.8466 51.1304 29.4666 51.1304Z" fill="white"/>
<path d="M27.4999 61.3565H15.8333C14.4533 61.3565 13.3333 60.2112 13.3333 58.8C13.3333 57.3888 14.4533 56.2435 15.8333 56.2435H27.4999C28.8799 56.2435 29.9999 57.3888 29.9999 58.8C29.9999 60.2112 28.8799 61.3565 27.4999 61.3565Z" fill="white"/>
<path d="M27.5 71.5826H9.16667C4.11 71.5826 0 67.3797 0 62.2087V9.37391C0 4.20292 4.11 0 9.16667 0H47.5C52.5567 0 56.6667 4.20292 56.6667 9.37391V28.3263C56.6667 29.7375 55.5467 30.8828 54.1667 30.8828C52.7867 30.8828 51.6667 29.7375 51.6667 28.3263V9.37391C51.6667 7.02532 49.7967 5.11304 47.5 5.11304H9.16667C6.87 5.11304 5 7.02532 5 9.37391V62.2087C5 64.5573 6.87 66.4696 9.16667 66.4696H27.5C28.88 66.4696 30 67.6149 30 69.0261C30 70.4373 28.88 71.5826 27.5 71.5826Z" fill="white"/>
<path d="M28.3334 23.8609C32.0153 23.8609 35.0001 20.8086 35.0001 17.0435C35.0001 13.2783 32.0153 10.2261 28.3334 10.2261C24.6515 10.2261 21.6667 13.2783 21.6667 17.0435C21.6667 20.8086 24.6515 23.8609 28.3334 23.8609Z" fill="white"/>
<path d="M39.1667 40.9043H17.5C16.12 40.9043 15 39.759 15 38.3478V36.6435C15 31.4725 19.11 27.2696 24.1667 27.2696H32.5C37.5567 27.2696 41.6667 31.4725 41.6667 36.6435V38.3478C41.6667 39.759 40.5467 40.9043 39.1667 40.9043Z" fill="white"/>
<path d="M58.3334 37.4957C46.3867 37.4957 36.6667 47.4354 36.6667 59.6522C36.6667 71.8689 46.3867 81.8087 58.3334 81.8087C70.2801 81.8087 80.0001 71.8689 80.0001 59.6522C80.0001 47.4354 70.2801 37.4957 58.3334 37.4957ZM58.3334 74.9913C56.9534 74.9913 55.8334 73.846 55.8334 72.4348C55.8334 71.0236 56.9534 69.8783 58.3334 69.8783C59.7134 69.8783 60.8334 71.0236 60.8334 72.4348C60.8334 73.846 59.7134 74.9913 58.3334 74.9913ZM63.3034 60.1908C61.1234 61.9019 60.8334 63.4801 60.8334 65.6174C60.8334 67.0286 59.7134 68.1739 58.3334 68.1739C54.3167 68.1739 55.1401 60.1533 60.2567 56.1344C61.1401 55.4424 61.6667 54.3142 61.6667 53.1211C61.6667 51.0827 60.1701 49.4295 58.3334 49.4295C56.4967 49.4295 55.0001 51.0861 55.0001 53.1211C55.0001 54.5323 53.8801 55.6776 52.5001 55.6776C51.1201 55.6776 50.0001 54.5323 50.0001 53.1177C50.0001 48.2637 53.7401 44.313 58.3334 44.313C62.9268 44.313 66.6667 48.2637 66.6667 53.1177C66.6667 55.8924 65.4101 58.5341 63.3034 60.1908Z" fill="white"/>
</g>
<defs>
<clipPath id="clip0_11_1415">
<rect width="80" height="81.8087" fill="white"/>
</clipPath>
</defs>
</svg>
