<svg width="80" height="80" viewBox="0 0 80 80" fill="none" xmlns="http://www.w3.org/2000/svg">
<path d="M22.3437 43.2214C22.3437 39.1147 19.0026 35.7734 14.8957 35.7734C10.789 35.7734 7.44775 39.1147 7.44775 43.2214C7.44775 47.3281 10.7888 50.6692 14.8957 50.6692C19.0026 50.6692 22.3437 47.3281 22.3437 43.2214Z" fill="white"/>
<path d="M72.5519 43.2214C72.5519 39.1147 69.2108 35.7734 65.104 35.7734C60.9973 35.7734 57.656 39.1147 57.656 43.2214C57.656 47.3281 60.9971 50.6692 65.104 50.6692C69.2108 50.6692 72.5519 47.3281 72.5519 43.2214Z" fill="white"/>
<path d="M47.4479 36.9453C47.4479 32.8386 44.1068 29.4973 40 29.4973C35.8933 29.4973 32.552 32.8386 32.552 36.9453C32.552 41.052 35.8931 44.3931 40 44.3931C44.1067 44.3931 47.4479 41.052 47.4479 36.9453Z" fill="white"/>
<path d="M0 65.5652V70.7525C0 72.0469 1.04937 73.0963 2.34375 73.0963H20.8198C20.5597 72.3627 20.4167 71.5742 20.4167 70.7525V59.2591C20.4323 56.82 20.8952 54.4844 21.7245 52.3292C19.6778 51.2689 17.3556 50.6691 14.8958 50.6691C6.73469 50.6692 0.0523438 57.3448 0 65.5652Z" fill="white"/>
<path d="M65.1042 50.6692C62.6586 50.6692 60.3461 51.2692 58.3047 52.3302C59.13 54.4937 59.5834 56.8392 59.5834 59.2892V70.7526C59.5834 71.5742 59.4405 72.3628 59.1803 73.0964H77.6562C78.9506 73.0964 80 72.047 80 70.7526V65.5653C80 57.3516 73.3177 50.6692 65.1042 50.6692Z" fill="white"/>
<path d="M40 44.3931C31.8388 44.3931 25.1566 51.0688 25.1042 59.2891V70.7525C25.1042 72.0469 26.1536 73.0963 27.448 73.0963H52.5522C53.8466 73.0963 54.896 72.0469 54.896 70.7525V59.2891C54.8958 51.0755 48.2136 44.3931 40 44.3931Z" fill="white"/>
<path d="M38.3426 20.9462C38.7821 21.3858 39.3782 21.6328 40 21.6328C40.6215 21.6328 41.2176 21.3859 41.6571 20.9462L51.6989 10.9045C52.6142 9.98938 52.6142 8.50531 51.6989 7.59C50.7837 6.67484 49.2996 6.67484 48.3843 7.59L40 15.9745L36.6365 12.6109C35.7212 11.6955 34.2373 11.6958 33.322 12.6109C32.4067 13.5261 32.4067 15.0102 33.322 15.9255L38.3426 20.9462Z" fill="white"/>
<path d="M9.47286 27.2223C10.388 28.1375 11.8721 28.1375 12.7874 27.2223L14.8958 25.1139L17.0043 27.2223C17.9194 28.1375 19.4035 28.1375 20.3188 27.2223C21.2341 26.3072 21.2341 24.8231 20.3188 23.9078L18.2104 21.7994L20.3188 19.6909C21.2341 18.7758 21.2341 17.2917 20.3188 16.3764C19.4036 15.4613 17.9196 15.4613 17.0043 16.3764L14.8958 18.4848L12.7874 16.3766C11.8722 15.4614 10.3882 15.4614 9.47286 16.3766C8.55755 17.2917 8.55755 18.7758 9.47286 19.6911L11.5813 21.7995L9.47286 23.9078C8.55755 24.8231 8.55755 26.3072 9.47286 27.2223Z" fill="white"/>
<path d="M59.6143 27.2223C60.5295 28.1375 62.0136 28.1375 62.9289 27.2223L65.0373 25.1139L67.1457 27.2223C68.0609 28.1375 69.545 28.1375 70.4603 27.2223C71.3756 26.3072 71.3756 24.8231 70.4603 23.9078L68.3518 21.7994L70.4603 19.6909C71.3756 18.7758 71.3756 17.2917 70.4603 16.3764C69.5451 15.4613 68.0611 15.4613 67.1457 16.3764L65.0373 18.4848L62.9289 16.3764C62.0137 15.4613 60.5296 15.4613 59.6143 16.3764C58.699 17.2916 58.699 18.7756 59.6143 19.6909L61.7228 21.7994L59.6143 23.9078C58.6989 24.8231 58.6989 26.3072 59.6143 27.2223Z" fill="white"/>
</svg>
