<svg width="17" height="17" viewBox="0 0 17 17" fill="none" xmlns="http://www.w3.org/2000/svg">
<g clip-path="url(#clip0_74_112)">
<path d="M15.0078 1.32812H14.2109V0H12.8828V1.32812H4.11719V0H2.78906V1.32812H1.99219C0.893631 1.32812 0 2.22176 0 3.32031V15.0078C0 16.1064 0.893631 17 1.99219 17H15.0078C16.1064 17 17 16.1064 17 15.0078V3.32031C17 2.22176 16.1064 1.32812 15.0078 1.32812ZM1.99219 2.65625H2.78906V3.98438H4.11719V2.65625H12.8828V3.98438H14.2109V2.65625H15.0078C15.374 2.65625 15.6719 2.95417 15.6719 3.32031V4.91406H1.32812V3.32031C1.32812 2.95417 1.62605 2.65625 1.99219 2.65625ZM15.0078 15.6719H1.99219C1.62605 15.6719 1.32812 15.374 1.32812 15.0078V6.24219H15.6719V15.0078C15.6719 15.374 15.374 15.6719 15.0078 15.6719ZM2.52344 7.63672H3.85156V8.96484H2.52344V7.63672ZM5.17969 7.63672H6.50781V8.96484H5.17969V7.63672ZM7.83594 7.63672H9.16406V8.96484H7.83594V7.63672ZM11.8203 8.96484H10.4922V7.63672H11.8203V8.96484ZM14.4766 8.96484H13.1484V7.63672H14.4766V8.96484ZM2.52344 10.293H3.85156V11.6211H2.52344V10.293ZM5.17969 10.293H6.50781V11.6211H5.17969V10.293ZM7.83594 10.293H9.16406V11.6211H7.83594V10.293ZM2.52344 12.9492H3.85156V14.2773H2.52344V12.9492ZM5.17969 12.9492H6.50781V14.2773H5.17969V12.9492ZM7.83594 12.9492H9.16406V14.2773H7.83594V12.9492ZM14.6758 11.7854L13.5801 12.8324L13.8387 14.3105L12.4844 13.6126L11.1301 14.3105L11.3887 12.8324L10.293 11.7854L11.8072 11.5699L12.4844 10.2249L13.1615 11.5697L14.6758 11.7854Z" fill="#0080C0"/>
</g>
<defs>
<clipPath id="clip0_74_112">
<rect width="17" height="17" fill="white"/>
</clipPath>
</defs>
</svg>
