<svg width="20" height="20" viewBox="0 0 20 20" fill="none" xmlns="http://www.w3.org/2000/svg">
<path d="M19.9998 8.60709C19.9998 5.46531 17.4432 2.90942 14.3014 2.90942C12.9989 2.90942 11.7974 3.34905 10.8367 4.08727C8.75397 2.47638 5.86398 2.50662 3.81405 4.15082L2.18503 2.52185H3.66389C4.01748 2.52185 4.30384 2.23549 4.30384 1.88191C4.30384 1.52833 4.01748 1.24197 3.66389 1.24197H0.645395C0.600709 1.24158 0.556023 1.24587 0.51204 1.25482C0.509149 1.2554 0.506376 1.25626 0.503524 1.25689C0.485986 1.26072 0.468564 1.26501 0.451299 1.27029C0.44751 1.27146 0.443839 1.27298 0.44005 1.27423C0.423956 1.27951 0.40798 1.28513 0.392278 1.29169C0.388996 1.29306 0.385911 1.29474 0.382669 1.29615C0.36681 1.3031 0.351068 1.31048 0.335678 1.31876C0.333608 1.3199 0.331655 1.32122 0.329584 1.32236C0.313491 1.3313 0.297632 1.34071 0.282203 1.35114C0.281773 1.35142 0.281383 1.35177 0.280953 1.35204C0.247946 1.37442 0.216463 1.39993 0.187206 1.42915C0.143418 1.47294 0.107755 1.52169 0.0793186 1.57332C0.0785765 1.57465 0.0777171 1.57594 0.0769749 1.57727C0.0681471 1.59356 0.0602958 1.6102 0.0529913 1.62707C0.0520148 1.6293 0.0508429 1.63145 0.0499055 1.63371C0.0428744 1.65051 0.0367809 1.66754 0.0312342 1.68477C0.0303748 1.68742 0.0292811 1.69 0.0284608 1.6927C0.0227579 1.71117 0.0180705 1.72988 0.0140863 1.74871C0.0137347 1.75031 0.013266 1.75187 0.0129144 1.75348C0.00396941 1.79754 -0.000366393 1.84226 2.42198e-05 1.88706V4.90549C2.42198e-05 5.25907 0.286382 5.54543 0.639965 5.54543C0.993196 5.54543 1.27955 5.25907 1.27955 4.90584V3.42663L2.90915 5.05622C2.10472 6.06162 1.66747 7.30068 1.66747 8.60744C1.66747 10.1296 2.26027 11.5603 3.33629 12.6363C4.41196 13.712 5.84297 14.3048 7.3655 14.3048C8.63659 14.3048 9.84394 13.8911 10.8345 13.1286C11.6571 13.761 12.6309 14.1535 13.6612 14.2688V15.5971H12.2673C11.9137 15.5971 11.6273 15.8835 11.6273 16.237C11.6273 16.5906 11.9137 16.877 12.2673 16.877H13.6612V18.1184C13.6612 18.4719 13.9475 18.7583 14.3011 18.7583C14.6543 18.7583 14.941 18.4719 14.941 18.1187V16.877H16.3356C16.6892 16.877 16.9756 16.5906 16.9756 16.237C16.9756 15.8835 16.6892 15.5971 16.3356 15.5971H14.941V14.2686C17.7827 13.9495 19.9998 11.5325 19.9998 8.60709ZM4.24142 11.7312C3.40703 10.8968 2.94735 9.78779 2.94735 8.60744C2.94735 7.42709 3.40703 6.31779 4.24142 5.48336C5.78977 3.93407 8.16899 3.7622 9.90339 4.98896C9.09201 5.97366 8.60413 7.23444 8.60413 8.60709C8.60413 9.52124 8.82565 10.4298 9.24474 11.2344C9.40801 11.5478 9.79417 11.6698 10.1079 11.5065C10.4213 11.3433 10.5433 10.9567 10.3801 10.6434C10.0504 10.0114 9.88362 9.3264 9.88362 8.60709C9.88362 6.17111 11.8655 4.1893 14.3011 4.1893C16.7374 4.1893 18.7196 6.1715 18.7196 8.60744C18.7196 11.0416 16.7403 13.0222 14.3065 13.0252C14.3047 13.0252 14.3029 13.0249 14.3011 13.0249C14.2992 13.0249 14.2974 13.0252 14.2955 13.0252C13.382 13.0241 12.5044 12.7439 11.7676 12.2267C13.2287 10.458 13.494 7.99609 12.3993 5.93577C12.2339 5.62378 11.8467 5.50383 11.534 5.67093C11.2217 5.83663 11.1032 6.22419 11.2692 6.53618C12.1858 8.26081 11.8724 10.3487 10.4896 11.7312C10.4668 11.7539 10.4437 11.7763 10.4206 11.7986C10.4033 11.8132 10.3866 11.8287 10.3707 11.8454C9.55117 12.6072 8.49042 13.0249 7.36554 13.0249C6.18475 13.0249 5.07545 12.5656 4.24142 11.7312Z" fill="#0080C0"/>
</svg>
